<?xml version="1.0" encoding="UTF-8" standalone="yes"?><svg xmlns="http://www.w3.org/2000/svg" xmlns:xlink="http://www.w3.org/1999/xlink" height="116pt" style="width:137px;height:116px;" version="1.1" viewBox="0 0 137 116" width="137pt"><defs><filter height="300%" id="f1" width="300%" x="-1" y="-1"><feGaussianBlur result="blurOut" stdDeviation="2"/><feColorMatrix in="blurOut" result="blurOut2" type="matrix" values="0 0 0 0 0 0 0 0 0 0 0 0 0 0 0 0 0 0 .4 0"/><feOffset dx="4" dy="4" in="blurOut2" result="blurOut3"/><feBlend in="SourceGraphic" in2="blurOut3" mode="normal"/></filter></defs><g><rect fill="#FEFECE" filter="url(#f1)" height="99.2188" style="stroke: #A80036; stroke-width: 1.5;" width="122" x="6" y="8.5"/><ellipse cx="43.5" cy="24.5" fill="#ADD1B2" rx="11" ry="11" style="stroke: #A80036; stroke-width: 1.0;"/><path d="M46.4688,30.1406 Q45.8906,30.4375 45.25,30.5859 Q44.6094,30.7344 43.9063,30.7344 Q41.4063,30.7344 40.0859,29.0859 Q38.7656,27.4375 38.7656,24.3125 Q38.7656,21.1875 40.0859,19.5313 Q41.4063,17.875 43.9063,17.875 Q44.6094,17.875 45.2578,18.0313 Q45.9063,18.1875 46.4688,18.4844 L46.4688,21.2031 Q45.8438,20.625 45.25,20.3516 Q44.6563,20.0781 44.0313,20.0781 Q42.6875,20.0781 42,21.1484 Q41.3125,22.2188 41.3125,24.3125 Q41.3125,26.4063 42,27.4766 Q42.6875,28.5469 44.0313,28.5469 Q44.6563,28.5469 45.25,28.2734 Q45.8438,28 46.4688,27.4219 L46.4688,30.1406 Z "/><text fill="#000000" font-size="12" lengthAdjust="spacingAndGlyphs" textLength="40" x="62.5" y="29.5156">Money</text><line style="stroke: #A80036; stroke-width: 1.5;" x1="7" x2="127" y1="40.5" y2="40.5"/><text fill="#000000" font-size="11" lengthAdjust="spacingAndGlyphs" textLength="54" x="12" y="55.5">ammount</text><text fill="#000000" font-size="11" lengthAdjust="spacingAndGlyphs" textLength="49" x="12" y="68.3047">currency</text><line style="stroke: #A80036; stroke-width: 1.5;" x1="7" x2="127" y1="74.1094" y2="74.1094"/><ellipse cx="17" cy="86.0117" fill="#84BE84" rx="3" ry="3" style="stroke: #038048; stroke-width: 1.0;"/><text fill="#000000" font-size="11" lengthAdjust="spacingAndGlyphs" textLength="42" x="26" y="89.1094">+ — *()</text><text fill="#000000" font-size="11" lengthAdjust="spacingAndGlyphs" textLength="96" x="26" y="101.9141">&gt; &lt; &gt;= &lt;= ==()</text></g></svg>